<svg version="1.2" xmlns="http://www.w3.org/2000/svg" viewBox="0 0 32 32" width="32" height="32">
	<title>636d403f04bd2d82bea2ef93_Experience Creator-svg</title>
	<style>
		.s0 { fill: #ef3e3c } 
		.s1 { fill: none;stroke: #202024;stroke-linecap: round;stroke-width: 1.5 } 
		.s2 { fill: #202024 } 
	</style>
	<path id="Layer" class="s0" d="m6.1 28.9l-4.6-2.8c-1.7-1-2-3.5-0.5-4.8l11.5-10.3 9-0.5-12.5 12.5-1 1.5 1.5 2 3.5-1-3.4 3c-0.9 0.9-2.4 1-3.5 0.4z"/>
	<path id="Layer" fill-rule="evenodd" class="s1" d="m17.5 14.5l2 2"/>
	<path id="Layer" fill-rule="evenodd" class="s2" d="m29.2 4.8h1.8c0.4 0 0.7 0.3 0.7 0.7 0 0.4-0.3 0.8-0.7 0.8h-1.8v1.7c0 0.4-0.3 0.8-0.7 0.8-0.4 0-0.8-0.4-0.8-0.8v-1.7h-1.7c-0.4 0-0.8-0.4-0.8-0.8 0-0.4 0.4-0.7 0.8-0.7h1.7v-1.8c0-0.4 0.4-0.7 0.8-0.7 0.4 0 0.7 0.3 0.7 0.7zm-13.2-1c0.4 0 0.7 0.3 0.7 0.8v1.7h1.8c0.4 0 0.7 0.3 0.7 0.8 0 0.4-0.3 0.7-0.7 0.7h-1.8v1.8c0 0.4-0.3 0.7-0.7 0.7-0.4 0-0.8-0.3-0.8-0.7v-1.8h-1.7c-0.4 0-0.8-0.3-0.8-0.7 0-0.5 0.4-0.8 0.8-0.8h1.7v-1.7c0-0.5 0.4-0.8 0.8-0.8zm13.2 13h1.8c0.4 0 0.7 0.3 0.7 0.8 0 0.4-0.3 0.7-0.7 0.7h-1.8v1.8c0 0.4-0.3 0.7-0.7 0.7-0.4 0-0.8-0.3-0.8-0.7v-1.8h-1.7c-0.4 0-0.8-0.3-0.8-0.7 0-0.5 0.4-0.8 0.8-0.8h1.7v-1.7c0-0.5 0.4-0.8 0.8-0.8 0.4 0 0.7 0.3 0.7 0.8zm-21.1 9.5c-1.2-1.2-1.2-3.2 0-4.4l8.3-8.4 3.4-3.4c1.2-1.2 3.2-1.2 4.4 0 1.2 1.2 1.2 3.1 0 4.3l-11.8 11.8c-1.2 1.3-3.1 1.3-4.3 0.1zm3.3-1.1l11.7-11.8c0.7-0.7 0.7-1.7 0-2.3-0.6-0.6-1.6-0.6-2.2 0l-3.5 3.5-8.3 8.3c-0.6 0.7-0.6 1.7 0 2.3 0.6 0.6 1.7 0.6 2.3 0z"/>
</svg>